<mxfile host="Electron" modified="2024-07-09T15:48:34.599Z" agent="Mozilla/5.0 (Windows NT 10.0; Win64; x64) AppleWebKit/537.36 (KHTML, like Gecko) draw.io/24.2.5 Chrome/120.0.6099.109 Electron/28.1.0 Safari/537.36" etag="2X3smZX2xoicizCVmKfh" version="24.2.5" type="device">
  <diagram name="Page-1" id="0EtKFH_yeUswPPRqUbHq">
    <mxGraphModel dx="2074" dy="1205" grid="1" gridSize="10" guides="1" tooltips="1" connect="1" arrows="1" fold="1" page="1" pageScale="1" pageWidth="827" pageHeight="1169" math="0" shadow="0">
      <root>
        <mxCell id="0" />
        <mxCell id="1" parent="0" />
        <mxCell id="QSqcfk-7Tip9ZLl0hiTW-13" value="" style="rounded=0;whiteSpace=wrap;html=1;fillColor=#ffe6cc;strokeColor=#d79b00;" vertex="1" parent="1">
          <mxGeometry x="40" y="370" width="790" height="400" as="geometry" />
        </mxCell>
        <mxCell id="QSqcfk-7Tip9ZLl0hiTW-1" value="GNM (Application)" style="rounded=0;whiteSpace=wrap;html=1;fontSize=15;fontStyle=1;fillColor=#f8cecc;strokeColor=#b85450;" vertex="1" parent="1">
          <mxGeometry x="60" y="390" width="230" height="40" as="geometry" />
        </mxCell>
        <mxCell id="QSqcfk-7Tip9ZLl0hiTW-2" value="User Mode Driver" style="rounded=0;whiteSpace=wrap;html=1;fontSize=15;fontStyle=1;fillColor=#f8cecc;strokeColor=#b85450;" vertex="1" parent="1">
          <mxGeometry x="60" y="500" width="230" height="40" as="geometry" />
        </mxCell>
        <mxCell id="QSqcfk-7Tip9ZLl0hiTW-3" value="Operating System" style="rounded=0;whiteSpace=wrap;html=1;fontSize=15;fontStyle=1;fillColor=#f8cecc;strokeColor=#b85450;" vertex="1" parent="1">
          <mxGeometry x="60" y="610" width="230" height="40" as="geometry" />
        </mxCell>
        <mxCell id="QSqcfk-7Tip9ZLl0hiTW-4" value="Kernel Mode Driver" style="rounded=0;whiteSpace=wrap;html=1;fontSize=15;fontStyle=1;fillColor=#f8cecc;strokeColor=#b85450;" vertex="1" parent="1">
          <mxGeometry x="60" y="720" width="230" height="40" as="geometry" />
        </mxCell>
        <mxCell id="QSqcfk-7Tip9ZLl0hiTW-14" value="" style="shape=singleArrow;direction=south;whiteSpace=wrap;html=1;fillColor=#fff2cc;strokeColor=#d6b656;" vertex="1" parent="1">
          <mxGeometry x="160" y="440" width="30" height="50" as="geometry" />
        </mxCell>
        <mxCell id="QSqcfk-7Tip9ZLl0hiTW-15" value="" style="shape=singleArrow;direction=south;whiteSpace=wrap;html=1;fillColor=#fff2cc;strokeColor=#d6b656;" vertex="1" parent="1">
          <mxGeometry x="160" y="550" width="30" height="50" as="geometry" />
        </mxCell>
        <mxCell id="QSqcfk-7Tip9ZLl0hiTW-17" value="" style="shape=singleArrow;direction=south;whiteSpace=wrap;html=1;fillColor=#fff2cc;strokeColor=#d6b656;" vertex="1" parent="1">
          <mxGeometry x="160" y="660" width="30" height="50" as="geometry" />
        </mxCell>
        <mxCell id="QSqcfk-7Tip9ZLl0hiTW-31" value="" style="rounded=0;whiteSpace=wrap;html=1;fillColor=#f8cecc;strokeColor=#b85450;" vertex="1" parent="1">
          <mxGeometry x="350" y="440" width="430" height="90" as="geometry" />
        </mxCell>
        <mxCell id="QSqcfk-7Tip9ZLl0hiTW-32" value="" style="shape=table;startSize=0;container=1;collapsible=0;childLayout=tableLayout;fontSize=16;" vertex="1" parent="1">
          <mxGeometry x="360" y="480" width="410" height="40" as="geometry" />
        </mxCell>
        <mxCell id="QSqcfk-7Tip9ZLl0hiTW-33" value="" style="shape=tableRow;horizontal=0;startSize=0;swimlaneHead=0;swimlaneBody=0;strokeColor=inherit;top=0;left=0;bottom=0;right=0;collapsible=0;dropTarget=0;fillColor=none;points=[[0,0.5],[1,0.5]];portConstraint=eastwest;fontSize=16;" vertex="1" parent="QSqcfk-7Tip9ZLl0hiTW-32">
          <mxGeometry width="410" height="40" as="geometry" />
        </mxCell>
        <mxCell id="QSqcfk-7Tip9ZLl0hiTW-34" value="PM4 Packet" style="shape=partialRectangle;html=1;whiteSpace=wrap;connectable=0;strokeColor=#82b366;overflow=hidden;fillColor=#d5e8d4;top=0;left=0;bottom=0;right=0;pointerEvents=1;fontSize=12;" vertex="1" parent="QSqcfk-7Tip9ZLl0hiTW-33">
          <mxGeometry width="58" height="40" as="geometry">
            <mxRectangle width="58" height="40" as="alternateBounds" />
          </mxGeometry>
        </mxCell>
        <mxCell id="QSqcfk-7Tip9ZLl0hiTW-35" value="PM4 Packet" style="shape=partialRectangle;html=1;whiteSpace=wrap;connectable=0;strokeColor=#82b366;overflow=hidden;fillColor=#d5e8d4;top=0;left=0;bottom=0;right=0;pointerEvents=1;fontSize=12;" vertex="1" parent="QSqcfk-7Tip9ZLl0hiTW-33">
          <mxGeometry x="58" width="59" height="40" as="geometry">
            <mxRectangle width="59" height="40" as="alternateBounds" />
          </mxGeometry>
        </mxCell>
        <mxCell id="QSqcfk-7Tip9ZLl0hiTW-36" value="PM4 Packet" style="shape=partialRectangle;html=1;whiteSpace=wrap;connectable=0;strokeColor=#82b366;overflow=hidden;fillColor=#d5e8d4;top=0;left=0;bottom=0;right=0;pointerEvents=1;fontSize=12;" vertex="1" parent="QSqcfk-7Tip9ZLl0hiTW-33">
          <mxGeometry x="117" width="59" height="40" as="geometry">
            <mxRectangle width="59" height="40" as="alternateBounds" />
          </mxGeometry>
        </mxCell>
        <mxCell id="QSqcfk-7Tip9ZLl0hiTW-37" value="PM4 Packet" style="shape=partialRectangle;html=1;whiteSpace=wrap;connectable=0;strokeColor=#d6b656;overflow=hidden;fillColor=#fff2cc;top=0;left=0;bottom=0;right=0;pointerEvents=1;fontSize=12;" vertex="1" parent="QSqcfk-7Tip9ZLl0hiTW-33">
          <mxGeometry x="176" width="59" height="40" as="geometry">
            <mxRectangle width="59" height="40" as="alternateBounds" />
          </mxGeometry>
        </mxCell>
        <mxCell id="QSqcfk-7Tip9ZLl0hiTW-38" value="......" style="shape=partialRectangle;html=1;whiteSpace=wrap;connectable=0;strokeColor=#d6b656;overflow=hidden;fillColor=#fff2cc;top=0;left=0;bottom=0;right=0;pointerEvents=1;fontSize=12;" vertex="1" parent="QSqcfk-7Tip9ZLl0hiTW-33">
          <mxGeometry x="235" width="58" height="40" as="geometry">
            <mxRectangle width="58" height="40" as="alternateBounds" />
          </mxGeometry>
        </mxCell>
        <mxCell id="QSqcfk-7Tip9ZLl0hiTW-39" value="......" style="shape=partialRectangle;html=1;whiteSpace=wrap;connectable=0;strokeColor=#d6b656;overflow=hidden;fillColor=#fff2cc;top=0;left=0;bottom=0;right=0;pointerEvents=1;fontSize=12;" vertex="1" parent="QSqcfk-7Tip9ZLl0hiTW-33">
          <mxGeometry x="293" width="59" height="40" as="geometry">
            <mxRectangle width="59" height="40" as="alternateBounds" />
          </mxGeometry>
        </mxCell>
        <mxCell id="QSqcfk-7Tip9ZLl0hiTW-40" value="......" style="shape=partialRectangle;html=1;whiteSpace=wrap;connectable=0;strokeColor=#d6b656;overflow=hidden;fillColor=#fff2cc;top=0;left=0;bottom=0;right=0;pointerEvents=1;fontSize=12;" vertex="1" parent="QSqcfk-7Tip9ZLl0hiTW-33">
          <mxGeometry x="352" width="58" height="40" as="geometry">
            <mxRectangle width="58" height="40" as="alternateBounds" />
          </mxGeometry>
        </mxCell>
        <mxCell id="QSqcfk-7Tip9ZLl0hiTW-41" value="Ring Buffer" style="text;html=1;align=center;verticalAlign=middle;whiteSpace=wrap;rounded=0;fontStyle=1;fontSize=14;" vertex="1" parent="1">
          <mxGeometry x="353" y="440" width="139" height="30" as="geometry" />
        </mxCell>
        <mxCell id="QSqcfk-7Tip9ZLl0hiTW-43" value="" style="endArrow=classic;html=1;rounded=0;exitX=0.25;exitY=1;exitDx=0;exitDy=0;entryX=1;entryY=0.5;entryDx=0;entryDy=0;" edge="1" parent="1" source="QSqcfk-7Tip9ZLl0hiTW-32" target="QSqcfk-7Tip9ZLl0hiTW-4">
          <mxGeometry width="50" height="50" relative="1" as="geometry">
            <mxPoint x="300" y="640" as="sourcePoint" />
            <mxPoint x="380" y="695" as="targetPoint" />
            <Array as="points">
              <mxPoint x="463" y="740" />
            </Array>
          </mxGeometry>
        </mxCell>
        <mxCell id="QSqcfk-7Tip9ZLl0hiTW-45" value="" style="endArrow=classic;html=1;rounded=0;exitX=1;exitY=0.5;exitDx=0;exitDy=0;entryX=0.5;entryY=1;entryDx=0;entryDy=0;" edge="1" parent="1" source="QSqcfk-7Tip9ZLl0hiTW-3" target="QSqcfk-7Tip9ZLl0hiTW-32">
          <mxGeometry width="50" height="50" relative="1" as="geometry">
            <mxPoint x="390" y="340" as="sourcePoint" />
            <mxPoint x="580" y="610" as="targetPoint" />
            <Array as="points">
              <mxPoint x="565" y="630" />
            </Array>
          </mxGeometry>
        </mxCell>
        <mxCell id="QSqcfk-7Tip9ZLl0hiTW-46" value="Write Command Buffer" style="text;html=1;align=center;verticalAlign=middle;whiteSpace=wrap;rounded=0;fontSize=15;" vertex="1" parent="1">
          <mxGeometry x="550" y="600" width="190" height="30" as="geometry" />
        </mxCell>
        <mxCell id="QSqcfk-7Tip9ZLl0hiTW-47" value="Read Command Buffer" style="text;html=1;align=center;verticalAlign=middle;whiteSpace=wrap;rounded=0;fontSize=15;" vertex="1" parent="1">
          <mxGeometry x="450" y="710" width="190" height="30" as="geometry" />
        </mxCell>
      </root>
    </mxGraphModel>
  </diagram>
</mxfile>
